{"title":"La.Chute.De.La.Maison.Usher.1928.HQ.720p.x264.AC3.[FrOnkY]","uid":11999042,"size":1321138329,"categoryP":"video","categoryS":"hd___movies","magnet":"?xt=urn:btih:cbff720f358e901300344232602cadcbdc7048a3&amp;dn=La.Chute.De.La.Maison.Usher.1928.HQ.720p.x264.AC3.%5BFrOnkY%5D&amp;tr=udp%3A%2F%2Ftracker.openbittorrent.com%3A80&amp;tr=udp%3A%2F%2Fopen.demonii.com%3A1337&amp;tr=udp%3A%2F%2Ftracker.coppersurfer.tk%3A6969&amp;tr=udp%3A%2F%2Fexodus.desync.com%3A6969","seeders":0,"leechers":0,"uploader":"HDmEntEs","files":1,"time":1433716863,"description":"La.Chute.De.La.Maison.Usher.aka.The.Fall.Of.The.House.Of.Usher.(El.Hundimiento.De.La.Casa.Usher).1928.HQ.720p.x264.AC3.[FrOnkY].mkv\n\n\nFormat                                   : Matroska\nFormat version                           : Version 4 / Version 2\nFile size                                : 1.23 GiB\nDuration                                 : 1h 4mn\nOverall bit rate                         : 2 732 Kbps\nWriting application                      : mkvmerge v6.9.1 ('Blue Panther') 32bit\nWriting library                          : libebml v1.3.0 + libmatroska v1.4.1\nAttachements                             : Usher1.jpg / Usher2.jpg / Usher3.jpg\n\nVideo\nID                                       : 1\nFormat                                   : AVC\nFormat/Info                              : Advanced Video Codec\nFormat profile                           : High L4.1\nFormat settings, CABAC                   : Yes\nFormat settings, ReFrames                : 12 frames\nCodec ID                                 : V_MPEG4/ISO/AVC\nDuration                                 : 1h 4mn\nBit rate                                 : 2 345 Kbps\nWidth                                    : 960 pixels\nHeight                                   : 720 pixels\nDisplay aspect ratio                     : 4:3\nFrame rate mode                          : Constant\nFrame rate                               : 23.976 fps\nColor space                              : YUV\nChroma subsampling                       : 4:2:0\nBit depth                                : 8 bits\nScan type                                : Progressive\nBits/(Pixel*Frame)                       : 0.142\nStream size                              : 1.03 GiB (84%)\nWriting library                          : x264 core 142 r2491 24e4fed\nLanguage                                 : French\nDefault                                  : Yes\nForced                                   : No\n\nAudio #1\nID                                       : 2\nFormat                                   : AC-3\nFormat/Info                              : Audio Coding 3\nMode extension                           : CM (complete main)\nFormat settings, Endianness              : Big\nCodec ID                                 : A_AC3\nDuration                                 : 1h 4mn\nBit rate mode                            : Constant\nBit rate                                 : 192 Kbps\nChannel(s)                               : 2 channels\nChannel positions                        : Front: L R\nSampling rate                            : 48.0 KHz\nBit depth                                : 16 bits\nStream size                              : 88.6 MiB (7%)\nLanguage                                 : French\nDefault                                  : Yes\nForced                                   : No\n\nAudio #2\nID                                       : 3\nFormat                                   : AC-3\nFormat/Info                              : Audio Coding 3\nMode extension                           : CM (complete main)\nFormat settings, Endianness              : Big\nCodec ID                                 : A_AC3\nDuration                                 : 1h 4mn\nBit rate mode                            : Constant\nBit rate                                 : 192 Kbps\nChannel(s)                               : 2 channels\nChannel positions                        : Front: L R\nSampling rate                            : 48.0 KHz\nBit depth                                : 16 bits\nStream size                              : 88.6 MiB (7%)\nLanguage                                 : French\nDefault                                  : No\nForced                                   : No\n\nText #1\nID                                       : 4\nFormat                                   : UTF-8\nCodec ID                                 : S_TEXT/UTF8\nCodec ID/Info                            : UTF-8 Plain Text\nLanguage                                 : Spanish\nDefault                                  : Yes\nForced                                   : No\n\nText #2\nID                                       : 5\nFormat                                   : UTF-8\nCodec ID                                 : S_TEXT/UTF8\nCodec ID/Info                            : UTF-8 Plain Text\nLanguage                                 : English\nDefault                                  : No\nForced                                   : No\n\nMenu\n00:00:00.000                             : en:Chapter 01\n00:00:56.555                             : en:Chapter 02\n00:09:53.666                             : en:Chapter 03\n00:20:28.777                             : en:Chapter 04\n00:31:06.888                             : en:Chapter 05\n00:42:23.444                             : en:Chapter 06\n00:53:05.333                             : en:Chapter 07\n\n\nSD - HQ\n &lt;a href=&quot;\nhttp://i.imgur.com/cR8uhsL.png&quot; rel=&quot;nofollow&quot; target=&quot;_NEW&quot;&gt;\nhttp://i.imgur.com/cR8uhsL.png&lt;/a&gt; &lt;a href=&quot;\nhttp://i.imgur.com/ok6DLNk.png&quot; rel=&quot;nofollow&quot; target=&quot;_NEW&quot;&gt;\nhttp://i.imgur.com/ok6DLNk.png&lt;/a&gt;\n &lt;a href=&quot;\nhttp://i.imgur.com/sPpuP6z.png&quot; rel=&quot;nofollow&quot; target=&quot;_NEW&quot;&gt;\nhttp://i.imgur.com/sPpuP6z.png&lt;/a&gt;","torrent":{"xt":"urn:btih:cbff720f358e901300344232602cadcbdc7048a3","amp;dn":"La.Chute.De.La.Maison.Usher.1928.HQ.720p.x264.AC3.%5BFrOnkY%5D","amp;tr":["udp%3A%2F%2Ftracker.openbittorrent.com%3A80","udp%3A%2F%2Fopen.demonii.com%3A1337","udp%3A%2F%2Ftracker.coppersurfer.tk%3A6969","udp%3A%2F%2Fexodus.desync.com%3A6969"],"infoHash":"cbff720f358e901300344232602cadcbdc7048a3","infoHashBuffer":{"type":"Buffer","data":[203,255,114,15,53,142,144,19,0,52,66,50,96,44,173,203,220,112,72,163]},"announce":[],"urlList":[]}}